<svg width="800" height="600" xmlns="http://www.w3.org/2000/svg">
 <!-- Created with Method Draw - http://github.com/duopixel/Method-Draw/ -->

 <g>
  <title>background</title>
  <rect x="-1" y="-1" width="802" height="602" id="canvas_background" fill="#ffffff"/>
  <g id="canvasGrid" display="none">
   <rect id="svg_4" width="100%" height="100%" x="0" y="0" stroke-width="0" fill="url(#gridpattern)"/>
  </g>
 </g>
 <g>
  <title>Layer 1</title>
  <path fill="#ed2121" stroke="#000000" stroke-width="1.5" d="m306.52388,306.64752l22.1428,-54.93307l18.57143,-39.99999l22.85714,-22.85714l37.14285,-8.57143l45.71428,-18.57143l14.28571,-5.71428l12.85714,24.28571l12.85714,5.71428l10,1.42857l12.85714,11.42857l10,2.85714l17.14285,4.28571l24.28571,1.42857l5.71428,-11.42857l1.42857,-12.85714l25.71428,10l15.71428,8.57143l18.57143,11.42857l17.14285,15.71428l8.57143,28.57142l5.71428,21.42857l5.71428,27.14285l4.28571,20l7.14286,28.57142l-24.28571,10c0.71435,0.64737 -26.4285,7.79022 -26.4285,7.79022c0,0 -8.57143,0 -8.57143,0c0,0 0,32.85714 -0.71435,32.20977c0.71435,0.64737 -3.57136,20.64737 -4.28571,20c0.71435,0.64737 3.57149,14.93308 2.85714,14.28571c0.71435,0.64737 -3.57136,22.07594 -4.28571,21.42857c0.71435,0.64737 3.57149,30.64737 2.14292,32.07594c-1.42857,1.42857 -2.85714,30 -3.57149,29.35262c0.71435,0.64737 2.14292,29.2188 1.42857,28.57142c0.71435,0.64737 7.85721,29.2188 7.14286,28.57142c0.71435,0.64737 6.42864,17.79023 5.71428,17.14285c0.71435,0.64738 -200.7142,0.64738 -201.42854,0c0.71434,0.64738 -46.42851,-100.78119 -47.14285,-101.42856c0.71434,0.64737 2.14291,-37.92405 1.42857,-38.57142c0.71434,0.64737 7.8572,-53.63834 7.14286,-54.28571c0.71434,0.64737 5.00006,-30.7812 4.28571,-31.42857c0.71434,0.64737 2.14291,-27.92406 1.42857,-28.57142c0.71434,0.64737 -13.57137,-15.06692 -14.28571,-15.71428c0.71434,0.64737 -4.99994,-10.7812 -5.71428,-11.42857c0.71434,0.64737 -14.99994,-5.06692 -15.71428,-5.71428c0.71434,0.64737 -12.1428,-3.63835 -12.85714,-4.28571c0.71434,0.64736 -20.71423,0.64736 -20.71423,0.64736c0,0 -20,1.42857 -20,1.42857l0.00001,0.00003z" id="svg_3"/>
 </g>
</svg>